<?xml version="1.0" encoding="UTF-8"?>
<svg xmlns="http://www.w3.org/2000/svg" viewBox="0 0 512 512" role="img" aria-label="Dino Leung">
  <defs>
    <linearGradient id="bg" x1="64" x2="448" y1="32" y2="480" gradientUnits="userSpaceOnUse">
      <stop stop-color="#eff1f5"/>
      <stop offset="1" stop-color="#dce0e8"/>
    </linearGradient>
    <pattern id="grid" width="52" height="52" patternUnits="userSpaceOnUse">
      <path d="M52 0H0v52" fill="none" stroke="#4c4f69" stroke-opacity=".14" stroke-width="2"/>
    </pattern>
  </defs>
  <rect width="512" height="512" rx="96" fill="url(#bg)"/>
  <rect width="512" height="512" rx="96" fill="url(#grid)" opacity=".48"/>
  <path d="M96 148V96h52M364 416h52v-52" fill="none" stroke="#fe640b" stroke-width="22" stroke-linecap="square"/>
  <path d="M96 416h320M96 96h320M96 96v320M416 96v320" fill="none" stroke="#4c4f69" stroke-width="14"/>
  <path d="M157 164h74c70 0 119 38 119 92s-49 92-119 92h-74V164Zm55 45v94h21c37 0 60-18 60-47s-23-47-60-47h-21Z" fill="#4c4f69"/>
  <path d="M196 376h120" stroke="#179299" stroke-width="18" stroke-linecap="square"/>
  <path d="M316 376h48" stroke="#7287fd" stroke-width="18" stroke-linecap="square"/>
</svg>
